<svg width="252" height="65" viewBox="0 0 252 65" fill="none" xmlns="http://www.w3.org/2000/svg">
<path d="M109.239 33L117.369 11.64H123.489L131.529 33H125.289L119.319 14.85H121.479L115.359 33H109.239ZM114.519 29.4V24.72H126.459V29.4H114.519ZM140.601 33V28.68H144.531C145.291 28.68 145.901 28.48 146.361 28.08C146.821 27.66 147.051 27.09 147.051 26.37C147.051 25.89 146.941 25.48 146.721 25.14C146.521 24.78 146.231 24.51 145.851 24.33C145.491 24.15 145.051 24.06 144.531 24.06H140.601V19.92H144.261C144.901 19.92 145.431 19.76 145.851 19.44C146.271 19.12 146.481 18.62 146.481 17.94C146.481 17.26 146.271 16.76 145.851 16.44C145.431 16.12 144.901 15.96 144.261 15.96H140.601V11.64H145.941C147.241 11.64 148.371 11.89 149.331 12.39C150.311 12.87 151.071 13.54 151.611 14.4C152.151 15.24 152.421 16.21 152.421 17.31C152.421 18.83 151.881 20.07 150.801 21.03C149.721 21.99 148.141 22.54 146.061 22.68L146.001 20.61C148.261 20.75 149.991 21.37 151.191 22.47C152.391 23.57 152.991 24.98 152.991 26.7C152.991 27.94 152.681 29.04 152.061 30C151.441 30.94 150.571 31.68 149.451 32.22C148.351 32.74 147.061 33 145.581 33H140.601ZM135.741 33V11.64H141.621V33H135.741ZM156.427 33L164.557 11.64H170.677L178.717 33H172.477L166.507 14.85H168.667L162.547 33H156.427ZM161.707 29.4V24.72H173.647V29.4H161.707ZM186.949 33V27.9H191.929C193.049 27.9 194.019 27.7 194.839 27.3C195.659 26.88 196.289 26.25 196.729 25.41C197.169 24.57 197.389 23.53 197.389 22.29C197.389 21.05 197.159 20.02 196.699 19.2C196.259 18.38 195.629 17.77 194.809 17.37C194.009 16.95 193.049 16.74 191.929 16.74H186.649V11.64H191.929C193.609 11.64 195.149 11.89 196.549 12.39C197.969 12.89 199.199 13.61 200.239 14.55C201.279 15.49 202.079 16.62 202.639 17.94C203.219 19.24 203.509 20.7 203.509 22.32C203.509 23.94 203.219 25.41 202.639 26.73C202.079 28.03 201.279 29.15 200.239 30.09C199.199 31.03 197.979 31.75 196.579 32.25C195.179 32.75 193.649 33 191.989 33H186.949ZM182.929 33V11.64H188.929V33H182.929ZM217.426 33.36C215.546 33.36 213.906 32.98 212.506 32.22C211.106 31.44 210.016 30.37 209.236 29.01C208.456 27.65 208.066 26.09 208.066 24.33V11.64H214.066V24.87C214.066 25.55 214.216 26.13 214.516 26.61C214.816 27.09 215.216 27.46 215.716 27.72C216.236 27.96 216.806 28.08 217.426 28.08C218.066 28.08 218.626 27.96 219.106 27.72C219.606 27.46 219.996 27.1 220.276 26.64C220.556 26.16 220.696 25.58 220.696 24.9V11.64H226.726V24.36C226.726 26.12 226.336 27.68 225.556 29.04C224.796 30.38 223.716 31.44 222.316 32.22C220.936 32.98 219.306 33.36 217.426 33.36ZM237.232 33V28.68H241.162C241.922 28.68 242.532 28.48 242.992 28.08C243.452 27.66 243.682 27.09 243.682 26.37C243.682 25.89 243.572 25.48 243.352 25.14C243.152 24.78 242.862 24.51 242.482 24.33C242.122 24.15 241.682 24.06 241.162 24.06H237.232V19.92H240.892C241.532 19.92 242.062 19.76 242.482 19.44C242.902 19.12 243.112 18.62 243.112 17.94C243.112 17.26 242.902 16.76 242.482 16.44C242.062 16.12 241.532 15.96 240.892 15.96H237.232V11.64H242.572C243.872 11.64 245.002 11.89 245.962 12.39C246.942 12.87 247.702 13.54 248.242 14.4C248.782 15.24 249.052 16.21 249.052 17.31C249.052 18.83 248.512 20.07 247.432 21.03C246.352 21.99 244.772 22.54 242.692 22.68L242.632 20.61C244.892 20.75 246.622 21.37 247.822 22.47C249.022 23.57 249.622 24.98 249.622 26.7C249.622 27.94 249.312 29.04 248.692 30C248.072 30.94 247.202 31.68 246.082 32.22C244.982 32.74 243.692 33 242.212 33H237.232ZM232.372 33V11.64H238.252V33H232.372Z" fill="#1E1E1E"/>
<path d="M112.426 50.11C111.876 50.11 111.366 50.011 110.897 49.813C110.428 49.6077 110.017 49.3253 109.665 48.966C109.32 48.6067 109.053 48.1887 108.862 47.712C108.671 47.2353 108.576 46.7257 108.576 46.183C108.576 45.633 108.671 45.1197 108.862 44.643C109.053 44.1663 109.32 43.752 109.665 43.4C110.017 43.0407 110.424 42.762 110.886 42.564C111.355 42.3587 111.865 42.256 112.415 42.256C113.016 42.256 113.544 42.3587 113.999 42.564C114.454 42.7693 114.857 43.048 115.209 43.4L114.494 44.115C114.252 43.8437 113.955 43.631 113.603 43.477C113.258 43.323 112.862 43.246 112.415 43.246C112.012 43.246 111.641 43.3193 111.304 43.466C110.967 43.6053 110.673 43.807 110.424 44.071C110.175 44.335 109.98 44.6467 109.841 45.006C109.709 45.3653 109.643 45.7577 109.643 46.183C109.643 46.6083 109.709 47.0007 109.841 47.36C109.98 47.7193 110.175 48.031 110.424 48.295C110.673 48.559 110.967 48.7643 111.304 48.911C111.641 49.0503 112.012 49.12 112.415 49.12C112.892 49.12 113.306 49.043 113.658 48.889C114.01 48.7277 114.307 48.5113 114.549 48.24L115.264 48.944C114.912 49.3107 114.498 49.5967 114.021 49.802C113.552 50.0073 113.02 50.11 112.426 50.11ZM122.199 50.11C121.656 50.11 121.15 50.011 120.681 49.813C120.211 49.6077 119.801 49.3253 119.449 48.966C119.097 48.5993 118.822 48.1777 118.624 47.701C118.433 47.2243 118.338 46.7147 118.338 46.172C118.338 45.622 118.433 45.1123 118.624 44.643C118.822 44.1663 119.093 43.7483 119.438 43.389C119.79 43.0297 120.197 42.751 120.659 42.553C121.128 42.355 121.634 42.256 122.177 42.256C122.719 42.256 123.222 42.355 123.684 42.553C124.153 42.751 124.564 43.0297 124.916 43.389C125.268 43.7483 125.543 44.1663 125.741 44.643C125.939 45.1197 126.038 45.633 126.038 46.183C126.038 46.7257 125.939 47.2353 125.741 47.712C125.543 48.1887 125.268 48.6067 124.916 48.966C124.571 49.3253 124.164 49.6077 123.695 49.813C123.233 50.011 122.734 50.11 122.199 50.11ZM122.177 49.12C122.727 49.12 123.207 48.9953 123.618 48.746C124.036 48.4893 124.366 48.141 124.608 47.701C124.85 47.2537 124.971 46.744 124.971 46.172C124.971 45.7467 124.901 45.358 124.762 45.006C124.622 44.6467 124.428 44.335 124.179 44.071C123.929 43.807 123.636 43.6053 123.299 43.466C122.961 43.3193 122.587 43.246 122.177 43.246C121.634 43.246 121.154 43.3707 120.736 43.62C120.325 43.8693 119.999 44.214 119.757 44.654C119.522 45.094 119.405 45.6 119.405 46.172C119.405 46.5973 119.471 46.9933 119.603 47.36C119.742 47.7193 119.933 48.031 120.175 48.295C120.424 48.5517 120.717 48.7533 121.055 48.9C121.399 49.0467 121.773 49.12 122.177 49.12ZM129.956 50V42.366H130.682L130.99 43.565V50H129.956ZM135.236 50L130.55 43.741L130.682 42.366L135.379 48.614L135.236 50ZM135.236 50L134.928 48.867V42.366H135.962V50H135.236ZM142.238 50.11C141.637 50.11 141.124 50 140.698 49.78C140.273 49.56 139.895 49.241 139.565 48.823L140.269 48.119C140.511 48.4563 140.79 48.713 141.105 48.889C141.421 49.0577 141.809 49.142 142.271 49.142C142.726 49.142 143.089 49.043 143.36 48.845C143.639 48.647 143.778 48.3757 143.778 48.031C143.778 47.745 143.712 47.514 143.58 47.338C143.448 47.162 143.269 47.019 143.041 46.909C142.821 46.7917 142.579 46.689 142.315 46.601C142.051 46.5057 141.787 46.4067 141.523 46.304C141.259 46.194 141.017 46.062 140.797 45.908C140.577 45.7467 140.398 45.5377 140.258 45.281C140.126 45.0243 140.06 44.7017 140.06 44.313C140.06 43.8803 140.163 43.5137 140.368 43.213C140.581 42.905 140.867 42.6703 141.226 42.509C141.593 42.3403 142.004 42.256 142.458 42.256C142.957 42.256 143.404 42.355 143.8 42.553C144.196 42.7437 144.519 42.9967 144.768 43.312L144.064 44.016C143.837 43.752 143.591 43.554 143.327 43.422C143.071 43.29 142.774 43.224 142.436 43.224C142.026 43.224 141.699 43.3157 141.457 43.499C141.215 43.675 141.094 43.9243 141.094 44.247C141.094 44.5037 141.16 44.7127 141.292 44.874C141.432 45.028 141.611 45.16 141.831 45.27C142.051 45.38 142.293 45.4827 142.557 45.578C142.829 45.666 143.096 45.765 143.36 45.875C143.624 45.985 143.866 46.1243 144.086 46.293C144.306 46.4617 144.482 46.6817 144.614 46.953C144.754 47.217 144.823 47.5507 144.823 47.954C144.823 48.6287 144.589 49.1567 144.119 49.538C143.657 49.9193 143.03 50.11 142.238 50.11ZM150.386 50V42.586H151.42V50H150.386ZM147.79 43.312V42.366H154.005V43.312H147.79ZM158.43 46.678V45.809H160.498C160.946 45.809 161.29 45.6953 161.532 45.468C161.774 45.2407 161.895 44.9327 161.895 44.544C161.895 44.1773 161.774 43.873 161.532 43.631C161.298 43.389 160.957 43.268 160.509 43.268H158.43V42.366H160.542C161.026 42.366 161.448 42.4613 161.807 42.652C162.167 42.8353 162.442 43.0883 162.632 43.411C162.83 43.7337 162.929 44.104 162.929 44.522C162.929 44.9547 162.83 45.3323 162.632 45.655C162.442 45.9777 162.167 46.2307 161.807 46.414C161.448 46.59 161.026 46.678 160.542 46.678H158.43ZM157.737 50V42.366H158.771V50H157.737ZM162.137 50L159.365 46.579L160.344 46.238L163.446 50H162.137ZM169.854 50.11C169.29 50.11 168.784 49.9853 168.336 49.736C167.896 49.4793 167.548 49.131 167.291 48.691C167.035 48.2437 166.906 47.7377 166.906 47.173V42.366H167.94V47.151C167.94 47.5543 168.025 47.9027 168.193 48.196C168.362 48.4893 168.589 48.7167 168.875 48.878C169.169 49.0393 169.495 49.12 169.854 49.12C170.228 49.12 170.555 49.0393 170.833 48.878C171.119 48.7167 171.343 48.4893 171.504 48.196C171.673 47.9027 171.757 47.558 171.757 47.162V42.366H172.802V47.184C172.802 47.7487 172.674 48.251 172.417 48.691C172.161 49.131 171.812 49.4793 171.372 49.736C170.932 49.9853 170.426 50.11 169.854 50.11ZM180.468 50.11C179.918 50.11 179.408 50.011 178.939 49.813C178.47 49.6077 178.059 49.3253 177.707 48.966C177.362 48.6067 177.095 48.1887 176.904 47.712C176.713 47.2353 176.618 46.7257 176.618 46.183C176.618 45.633 176.713 45.1197 176.904 44.643C177.095 44.1663 177.362 43.752 177.707 43.4C178.059 43.0407 178.466 42.762 178.928 42.564C179.397 42.3587 179.907 42.256 180.457 42.256C181.058 42.256 181.586 42.3587 182.041 42.564C182.496 42.7693 182.899 43.048 183.251 43.4L182.536 44.115C182.294 43.8437 181.997 43.631 181.645 43.477C181.3 43.323 180.904 43.246 180.457 43.246C180.054 43.246 179.683 43.3193 179.346 43.466C179.009 43.6053 178.715 43.807 178.466 44.071C178.217 44.335 178.022 44.6467 177.883 45.006C177.751 45.3653 177.685 45.7577 177.685 46.183C177.685 46.6083 177.751 47.0007 177.883 47.36C178.022 47.7193 178.217 48.031 178.466 48.295C178.715 48.559 179.009 48.7643 179.346 48.911C179.683 49.0503 180.054 49.12 180.457 49.12C180.934 49.12 181.348 49.043 181.7 48.889C182.052 48.7277 182.349 48.5113 182.591 48.24L183.306 48.944C182.954 49.3107 182.54 49.5967 182.063 49.802C181.594 50.0073 181.062 50.11 180.468 50.11ZM188.928 50V42.586H189.962V50H188.928ZM186.332 43.312V42.366H192.547V43.312H186.332ZM196.279 50V42.366H197.313V50H196.279ZM205.091 50.11C204.549 50.11 204.043 50.011 203.573 49.813C203.104 49.6077 202.693 49.3253 202.341 48.966C201.989 48.5993 201.714 48.1777 201.516 47.701C201.326 47.2243 201.23 46.7147 201.23 46.172C201.23 45.622 201.326 45.1123 201.516 44.643C201.714 44.1663 201.986 43.7483 202.33 43.389C202.682 43.0297 203.089 42.751 203.551 42.553C204.021 42.355 204.527 42.256 205.069 42.256C205.612 42.256 206.114 42.355 206.576 42.553C207.046 42.751 207.456 43.0297 207.808 43.389C208.16 43.7483 208.435 44.1663 208.633 44.643C208.831 45.1197 208.93 45.633 208.93 46.183C208.93 46.7257 208.831 47.2353 208.633 47.712C208.435 48.1887 208.16 48.6067 207.808 48.966C207.464 49.3253 207.057 49.6077 206.587 49.813C206.125 50.011 205.627 50.11 205.091 50.11ZM205.069 49.12C205.619 49.12 206.1 48.9953 206.51 48.746C206.928 48.4893 207.258 48.141 207.5 47.701C207.742 47.2537 207.863 46.744 207.863 46.172C207.863 45.7467 207.794 45.358 207.654 45.006C207.515 44.6467 207.321 44.335 207.071 44.071C206.822 43.807 206.529 43.6053 206.191 43.466C205.854 43.3193 205.48 43.246 205.069 43.246C204.527 43.246 204.046 43.3707 203.628 43.62C203.218 43.8693 202.891 44.214 202.649 44.654C202.415 45.094 202.297 45.6 202.297 46.172C202.297 46.5973 202.363 46.9933 202.495 47.36C202.635 47.7193 202.825 48.031 203.067 48.295C203.317 48.5517 203.61 48.7533 203.947 48.9C204.292 49.0467 204.666 49.12 205.069 49.12ZM212.849 50V42.366H213.575L213.883 43.565V50H212.849ZM218.129 50L213.443 43.741L213.575 42.366L218.272 48.614L218.129 50ZM218.129 50L217.821 48.867V42.366H218.855V50H218.129ZM227.946 50V42.366H228.98V50H227.946ZM233.282 50V42.366H234.008L234.316 43.565V50H233.282ZM238.562 50L233.876 43.741L234.008 42.366L238.705 48.614L238.562 50ZM238.562 50L238.254 48.867V42.366H239.288V50H238.562ZM247.057 50.11C246.507 50.11 245.997 50.011 245.528 49.813C245.059 49.6077 244.648 49.3253 244.296 48.966C243.951 48.6067 243.684 48.1887 243.493 47.712C243.302 47.2353 243.207 46.7257 243.207 46.183C243.207 45.633 243.302 45.1197 243.493 44.643C243.684 44.1663 243.951 43.752 244.296 43.4C244.648 43.0407 245.055 42.762 245.517 42.564C245.986 42.3587 246.496 42.256 247.046 42.256C247.647 42.256 248.175 42.3587 248.63 42.564C249.085 42.7693 249.488 43.048 249.84 43.4L249.125 44.115C248.883 43.8437 248.586 43.631 248.234 43.477C247.889 43.323 247.493 43.246 247.046 43.246C246.643 43.246 246.272 43.3193 245.935 43.466C245.598 43.6053 245.304 43.807 245.055 44.071C244.806 44.335 244.611 44.6467 244.472 45.006C244.34 45.3653 244.274 45.7577 244.274 46.183C244.274 46.6083 244.34 47.0007 244.472 47.36C244.611 47.7193 244.806 48.031 245.055 48.295C245.304 48.559 245.598 48.7643 245.935 48.911C246.272 49.0503 246.643 49.12 247.046 49.12C247.523 49.12 247.937 49.043 248.289 48.889C248.641 48.7277 248.938 48.5113 249.18 48.24L249.895 48.944C249.543 49.3107 249.129 49.5967 248.652 49.802C248.183 50.0073 247.651 50.11 247.057 50.11Z" fill="#1E1E1E"/>
<path d="M18.0454 50.4998H98.5591L81.4395 64.4998H0.925781L18.0454 50.4998Z" fill="url(#paint0_linear_502_4181)" fill-opacity="0.2"/>
<path fill-rule="evenodd" clip-rule="evenodd" d="M50.0591 18.79L56.9734 23.5527V29.4999L50.0591 25.2097L34.0591 38.0941V45.4999H56.9734V50.4999H29.0591V35.7009L50.0591 18.79Z" fill="#1E1E1E"/>
<path fill-rule="evenodd" clip-rule="evenodd" d="M77.5591 0.790283L98.5591 17.7011V50.5001H56.5591V17.7011L77.5591 0.790283ZM61.5591 20.0944V45.5001H93.5591V20.0944L77.5591 7.20993L61.5591 20.0944Z" fill="#1E1E1E"/>
<path fill-rule="evenodd" clip-rule="evenodd" d="M63.0591 20.8504L77.5591 9L92.0591 20.8504V44H63.0591V20.8504ZM83.0591 36V25H72.0591V36H83.0591Z" fill="#FFBD3E"/>
<rect x="77.0586" y="25" width="1" height="11" fill="#1E1E1E"/>
<rect x="83.0586" y="30" width="1" height="11" transform="rotate(90 83.0586 30)" fill="#1E1E1E"/>
<rect x="72.5586" y="25.5" width="10" height="10" stroke="black"/>
<path fill-rule="evenodd" clip-rule="evenodd" d="M23.9455 12.4823L22.7465 15.6875L24.3791 14.1223C24.6663 15.2379 24.9683 16.4689 25.2784 17.8047L23.059 21.9375L25.6735 19.545C25.9247 20.6765 26.1793 21.8716 26.434 23.1251C26.8439 25.1431 27.1065 27.0614 27.2091 28.8297L24.3715 35.1875L27.1815 32.3494C26.7965 36.8548 24.9468 39.7501 21.3089 39.7501C17.4966 39.7501 14.5588 36.1251 17.0588 23.1251C20.1838 6.87508 21.684 5.75008 22.434 7.62508C22.7801 8.49044 23.3126 10.1546 23.9455 12.4823Z" fill="#70AB38"/>
<path d="M17.0588 23.1251C14.5588 36.1251 17.4966 39.7501 21.3089 39.7501C21.3089 39.7501 18.3091 38.75 18.3091 29.5C18.3091 20.25 22.434 7.62508 22.434 7.62508C21.684 5.75008 20.1838 6.87508 17.0588 23.1251Z" fill="#659835"/>
<path d="M21.3091 25L19.5591 49.25H22.6216L21.3091 25Z" fill="#8D5D43"/>
<path d="M19.2153 31.6562L21.3716 38.1875L21.8091 35.4062L19.2153 31.6562Z" fill="#8D5D43"/>
<path d="M23.2153 35.4688L21.3403 37.5938L21.7153 40.375L23.2153 35.4688Z" fill="#8D5D43"/>
<path d="M25.8717 48.3594C24.9842 49.3594 24.6894 50.4635 24.6529 50.8906H17.9966C17.9966 50.8906 17.132 49.8438 16.7778 49.8125C16.7778 49.8125 17.3091 49.6719 17.5747 49.6875C17.8403 49.7031 18.2934 50.0938 18.1528 49.3125C18.0403 48.6875 18.2518 48.0833 18.3716 47.8594C18.3716 47.8594 19.1945 49.0469 19.4341 49.0469C19.1591 48.5969 19.2049 48.0677 19.2622 47.8594C19.2622 47.8594 22.1841 49.5312 22.4184 48.2656C22.6059 47.2531 23.1945 46.2396 23.4654 45.8594C23.3873 46.8281 23.3404 48.6344 23.7779 48.1094C24.2154 47.5844 24.7519 47.3594 24.9654 47.3125C24.231 48.0625 23.231 50.0469 24.2935 49.3125C25.1435 48.725 25.6998 48.4323 25.8717 48.3594Z" fill="#A9C356"/>
<path d="M19.4341 49.0469C19.1591 48.5969 19.2049 48.0677 19.2622 47.8594C19.5247 49.7469 22.9654 50.6667 24.6529 50.8906H17.9966C17.9966 50.8906 17.132 49.8438 16.7778 49.8125C16.7778 49.8125 17.3091 49.6719 17.5747 49.6875C17.8403 49.7031 18.2934 50.0938 18.1528 49.3125C18.0403 48.6875 18.2518 48.0833 18.3716 47.8594C18.3716 47.8594 19.1945 49.0469 19.4341 49.0469Z" fill="#91A64A"/>
<path fill-rule="evenodd" clip-rule="evenodd" d="M30.7358 28.2587L30.0293 30.1473L30.9913 29.225C31.1606 29.8824 31.3385 30.6078 31.5213 31.3949L30.2135 33.8301L31.754 32.4203C31.9021 33.0871 32.0521 33.7913 32.2021 34.5299C32.4437 35.719 32.5984 36.8494 32.6589 37.8914L30.9869 41.6376L32.6426 39.9653C32.4157 42.6201 31.3258 44.3261 29.1822 44.3261C26.9358 44.3261 25.2048 42.1901 26.6779 34.5299C28.5193 24.9546 29.4032 24.2917 29.8451 25.3965C30.0491 25.9064 30.3629 26.8871 30.7358 28.2587Z" fill="#70AB38"/>
<path d="M26.6779 34.5299C25.2048 42.1901 26.9358 44.3261 29.1822 44.3261C29.1822 44.3261 27.4146 43.7368 27.4146 38.2863C27.4146 32.8357 29.8451 25.3965 29.8451 25.3965C29.4032 24.2917 28.5193 24.9546 26.6779 34.5299Z" fill="#659835"/>
<path d="M29.1823 35.6348L28.1511 49.924H29.9557L29.1823 35.6348Z" fill="#8D5D43"/>
<path d="M27.9485 39.5569L29.2191 43.4054L29.4768 41.7666L27.9485 39.5569Z" fill="#8D5D43"/>
<path d="M30.3055 41.8032L29.2007 43.0554L29.4217 44.6942L30.3055 41.8032Z" fill="#8D5D43"/>
<path d="M31.8707 49.3991C31.3478 49.9884 31.1741 50.639 31.1526 50.8907H27.2304C27.2304 50.8907 26.7209 50.2738 26.5122 50.2554C26.5122 50.2554 26.8252 50.1725 26.9818 50.1817C27.1383 50.1909 27.4053 50.4211 27.3224 49.9608C27.2561 49.5925 27.3807 49.2365 27.4513 49.1045C27.4513 49.1045 27.9362 49.8043 28.0774 49.8043C27.9153 49.5391 27.9423 49.2273 27.9761 49.1045C27.9761 49.1045 29.6978 50.0897 29.8359 49.3439C29.9464 48.7473 30.2932 48.1501 30.4528 47.926C30.4068 48.4969 30.3792 49.5612 30.637 49.2518C30.8948 48.9425 31.2109 48.8099 31.3367 48.7823C30.904 49.2242 30.3147 50.3935 30.9408 49.9608C31.4417 49.6146 31.7694 49.4421 31.8707 49.3991Z" fill="#A9C356"/>
<path d="M28.0774 49.8042C27.9153 49.5391 27.9423 49.2273 27.9761 49.1045C28.1308 50.2167 30.1582 50.7587 31.1526 50.8906H27.2304C27.2304 50.8906 26.7209 50.2738 26.5122 50.2554C26.5122 50.2554 26.8252 50.1725 26.9818 50.1817C27.1383 50.1909 27.4053 50.4211 27.3224 49.9607C27.2561 49.5925 27.3807 49.2365 27.4513 49.1045C27.4513 49.1045 27.9362 49.8042 28.0774 49.8042Z" fill="#91A64A"/>
<defs>
<linearGradient id="paint0_linear_502_4181" x1="53.2424" y1="50.4998" x2="53.2424" y2="64.4998" gradientUnits="userSpaceOnUse">
<stop stop-color="#1E1E1E"/>
<stop offset="1" stop-color="white" stop-opacity="0"/>
</linearGradient>
</defs>
</svg>
