<svg width="235" height="58" viewBox="0 0 235 58" fill="none" xmlns="http://www.w3.org/2000/svg">
<path d="M93.1077 32.2097L101.238 10.8497H107.358L115.398 32.2097H109.158L103.188 14.0597H105.348L99.2277 32.2097H93.1077ZM98.3877 28.6097V23.9297H110.328V28.6097H98.3877ZM124.47 32.2097V27.8897H128.4C129.16 27.8897 129.77 27.6897 130.23 27.2897C130.69 26.8697 130.92 26.2997 130.92 25.5797C130.92 25.0997 130.81 24.6897 130.59 24.3497C130.39 23.9897 130.1 23.7197 129.72 23.5397C129.36 23.3597 128.92 23.2697 128.4 23.2697H124.47V19.1297H128.13C128.77 19.1297 129.3 18.9697 129.72 18.6497C130.14 18.3297 130.35 17.8297 130.35 17.1497C130.35 16.4697 130.14 15.9697 129.72 15.6497C129.3 15.3297 128.77 15.1697 128.13 15.1697H124.47V10.8497H129.81C131.11 10.8497 132.24 11.0997 133.2 11.5997C134.18 12.0797 134.94 12.7497 135.48 13.6097C136.02 14.4497 136.29 15.4197 136.29 16.5197C136.29 18.0397 135.75 19.2797 134.67 20.2397C133.59 21.1997 132.01 21.7497 129.93 21.8897L129.87 19.8197C132.13 19.9597 133.86 20.5797 135.06 21.6797C136.26 22.7797 136.86 24.1897 136.86 25.9097C136.86 27.1497 136.55 28.2497 135.93 29.2097C135.31 30.1497 134.44 30.8897 133.32 31.4297C132.22 31.9497 130.93 32.2097 129.45 32.2097H124.47ZM119.61 32.2097V10.8497H125.49V32.2097H119.61ZM140.295 32.2097L148.425 10.8497H154.545L162.585 32.2097H156.345L150.375 14.0597H152.535L146.415 32.2097H140.295ZM145.575 28.6097V23.9297H157.515V28.6097H145.575ZM170.817 32.2097V27.1097H175.797C176.917 27.1097 177.887 26.9097 178.707 26.5097C179.527 26.0897 180.157 25.4597 180.597 24.6197C181.037 23.7797 181.257 22.7397 181.257 21.4997C181.257 20.2597 181.027 19.2297 180.567 18.4097C180.127 17.5897 179.497 16.9797 178.677 16.5797C177.877 16.1597 176.917 15.9497 175.797 15.9497H170.517V10.8497H175.797C177.477 10.8497 179.017 11.0997 180.417 11.5997C181.837 12.0997 183.067 12.8197 184.107 13.7597C185.147 14.6997 185.947 15.8297 186.507 17.1497C187.087 18.4497 187.377 19.9097 187.377 21.5297C187.377 23.1497 187.087 24.6197 186.507 25.9397C185.947 27.2397 185.147 28.3597 184.107 29.2997C183.067 30.2397 181.847 30.9597 180.447 31.4597C179.047 31.9597 177.517 32.2097 175.857 32.2097H170.817ZM166.797 32.2097V10.8497H172.797V32.2097H166.797ZM201.295 32.5697C199.415 32.5697 197.775 32.1897 196.375 31.4297C194.975 30.6497 193.885 29.5797 193.105 28.2197C192.325 26.8597 191.935 25.2997 191.935 23.5397V10.8497H197.935V24.0797C197.935 24.7597 198.085 25.3397 198.385 25.8197C198.685 26.2997 199.085 26.6697 199.585 26.9297C200.105 27.1697 200.675 27.2897 201.295 27.2897C201.935 27.2897 202.495 27.1697 202.975 26.9297C203.475 26.6697 203.865 26.3097 204.145 25.8497C204.425 25.3697 204.565 24.7897 204.565 24.1097V10.8497H210.595V23.5697C210.595 25.3297 210.205 26.8897 209.425 28.2497C208.665 29.5897 207.585 30.6497 206.185 31.4297C204.805 32.1897 203.175 32.5697 201.295 32.5697ZM221.101 32.2097V27.8897H225.031C225.791 27.8897 226.401 27.6897 226.861 27.2897C227.321 26.8697 227.551 26.2997 227.551 25.5797C227.551 25.0997 227.441 24.6897 227.221 24.3497C227.021 23.9897 226.731 23.7197 226.351 23.5397C225.991 23.3597 225.551 23.2697 225.031 23.2697H221.101V19.1297H224.761C225.401 19.1297 225.931 18.9697 226.351 18.6497C226.771 18.3297 226.981 17.8297 226.981 17.1497C226.981 16.4697 226.771 15.9697 226.351 15.6497C225.931 15.3297 225.401 15.1697 224.761 15.1697H221.101V10.8497H226.441C227.741 10.8497 228.871 11.0997 229.831 11.5997C230.811 12.0797 231.571 12.7497 232.111 13.6097C232.651 14.4497 232.921 15.4197 232.921 16.5197C232.921 18.0397 232.381 19.2797 231.301 20.2397C230.221 21.1997 228.641 21.7497 226.561 21.8897L226.501 19.8197C228.761 19.9597 230.491 20.5797 231.691 21.6797C232.891 22.7797 233.491 24.1897 233.491 25.9097C233.491 27.1497 233.181 28.2497 232.561 29.2097C231.941 30.1497 231.071 30.8897 229.951 31.4297C228.851 31.9497 227.561 32.2097 226.081 32.2097H221.101ZM216.241 32.2097V10.8497H222.121V32.2097H216.241Z" fill="white"/>
<path d="M96.2947 49.3197C95.7447 49.3197 95.2351 49.2207 94.7657 49.0227C94.2964 48.8174 93.8857 48.5351 93.5337 48.1757C93.1891 47.8164 92.9214 47.3984 92.7307 46.9217C92.5401 46.4451 92.4447 45.9354 92.4447 45.3927C92.4447 44.8427 92.5401 44.3294 92.7307 43.8527C92.9214 43.376 93.1891 42.9617 93.5337 42.6097C93.8857 42.2504 94.2927 41.9717 94.7547 41.7737C95.2241 41.5684 95.7337 41.4657 96.2837 41.4657C96.8851 41.4657 97.4131 41.5684 97.8677 41.7737C98.3224 41.979 98.7257 42.2577 99.0777 42.6097L98.3627 43.3247C98.1207 43.0534 97.8237 42.8407 97.4717 42.6867C97.1271 42.5327 96.7311 42.4557 96.2837 42.4557C95.8804 42.4557 95.5101 42.529 95.1727 42.6757C94.8354 42.815 94.5421 43.0167 94.2927 43.2807C94.0434 43.5447 93.8491 43.8564 93.7097 44.2157C93.5777 44.575 93.5117 44.9674 93.5117 45.3927C93.5117 45.8181 93.5777 46.2104 93.7097 46.5697C93.8491 46.929 94.0434 47.2407 94.2927 47.5047C94.5421 47.7687 94.8354 47.9741 95.1727 48.1207C95.5101 48.2601 95.8804 48.3297 96.2837 48.3297C96.7604 48.3297 97.1747 48.2527 97.5267 48.0987C97.8787 47.9374 98.1757 47.7211 98.4177 47.4497L99.1327 48.1537C98.7807 48.5204 98.3664 48.8064 97.8897 49.0117C97.4204 49.2171 96.8887 49.3197 96.2947 49.3197ZM106.067 49.3197C105.525 49.3197 105.019 49.2207 104.549 49.0227C104.08 48.8174 103.669 48.5351 103.317 48.1757C102.965 47.8091 102.69 47.3874 102.492 46.9107C102.302 46.434 102.206 45.9244 102.206 45.3817C102.206 44.8317 102.302 44.3221 102.492 43.8527C102.69 43.376 102.962 42.958 103.306 42.5987C103.658 42.2394 104.065 41.9607 104.527 41.7627C104.997 41.5647 105.503 41.4657 106.045 41.4657C106.588 41.4657 107.09 41.5647 107.552 41.7627C108.022 41.9607 108.432 42.2394 108.784 42.5987C109.136 42.958 109.411 43.376 109.609 43.8527C109.807 44.3294 109.906 44.8427 109.906 45.3927C109.906 45.9354 109.807 46.4451 109.609 46.9217C109.411 47.3984 109.136 47.8164 108.784 48.1757C108.44 48.5351 108.033 48.8174 107.563 49.0227C107.101 49.2207 106.603 49.3197 106.067 49.3197ZM106.045 48.3297C106.595 48.3297 107.076 48.2051 107.486 47.9557C107.904 47.6991 108.234 47.3507 108.476 46.9107C108.718 46.4634 108.839 45.9537 108.839 45.3817C108.839 44.9564 108.77 44.5677 108.63 44.2157C108.491 43.8564 108.297 43.5447 108.047 43.2807C107.798 43.0167 107.505 42.815 107.167 42.6757C106.83 42.529 106.456 42.4557 106.045 42.4557C105.503 42.4557 105.022 42.5804 104.604 42.8297C104.194 43.079 103.867 43.4237 103.625 43.8637C103.391 44.3037 103.273 44.8097 103.273 45.3817C103.273 45.807 103.339 46.203 103.471 46.5697C103.611 46.929 103.801 47.2407 104.043 47.5047C104.293 47.7614 104.586 47.9631 104.923 48.1097C105.268 48.2564 105.642 48.3297 106.045 48.3297ZM113.825 49.2097V41.5757H114.551L114.859 42.7747V49.2097H113.825ZM119.105 49.2097L114.419 42.9507L114.551 41.5757L119.248 47.8237L119.105 49.2097ZM119.105 49.2097L118.797 48.0767V41.5757H119.831V49.2097H119.105ZM126.107 49.3197C125.506 49.3197 124.992 49.2097 124.567 48.9897C124.142 48.7697 123.764 48.4507 123.434 48.0327L124.138 47.3287C124.38 47.6661 124.659 47.9227 124.974 48.0987C125.289 48.2674 125.678 48.3517 126.14 48.3517C126.595 48.3517 126.958 48.2527 127.229 48.0547C127.508 47.8567 127.647 47.5854 127.647 47.2407C127.647 46.9547 127.581 46.7237 127.449 46.5477C127.317 46.3717 127.137 46.2287 126.91 46.1187C126.69 46.0014 126.448 45.8987 126.184 45.8107C125.92 45.7154 125.656 45.6164 125.392 45.5137C125.128 45.4037 124.886 45.2717 124.666 45.1177C124.446 44.9564 124.266 44.7474 124.127 44.4907C123.995 44.234 123.929 43.9114 123.929 43.5227C123.929 43.09 124.032 42.7234 124.237 42.4227C124.45 42.1147 124.736 41.88 125.095 41.7187C125.462 41.55 125.872 41.4657 126.327 41.4657C126.826 41.4657 127.273 41.5647 127.669 41.7627C128.065 41.9534 128.388 42.2064 128.637 42.5217L127.933 43.2257C127.706 42.9617 127.46 42.7637 127.196 42.6317C126.939 42.4997 126.642 42.4337 126.305 42.4337C125.894 42.4337 125.568 42.5254 125.326 42.7087C125.084 42.8847 124.963 43.134 124.963 43.4567C124.963 43.7134 125.029 43.9224 125.161 44.0837C125.3 44.2377 125.48 44.3697 125.7 44.4797C125.92 44.5897 126.162 44.6924 126.426 44.7877C126.697 44.8757 126.965 44.9747 127.229 45.0847C127.493 45.1947 127.735 45.334 127.955 45.5027C128.175 45.6714 128.351 45.8914 128.483 46.1627C128.622 46.4267 128.692 46.7604 128.692 47.1637C128.692 47.8384 128.457 48.3664 127.988 48.7477C127.526 49.1291 126.899 49.3197 126.107 49.3197ZM134.255 49.2097V41.7957H135.289V49.2097H134.255ZM131.659 42.5217V41.5757H137.874V42.5217H131.659ZM142.299 45.8877V45.0187H144.367C144.814 45.0187 145.159 44.905 145.401 44.6777C145.643 44.4504 145.764 44.1424 145.764 43.7537C145.764 43.3871 145.643 43.0827 145.401 42.8407C145.166 42.5987 144.825 42.4777 144.378 42.4777H142.299V41.5757H144.411C144.895 41.5757 145.317 41.671 145.676 41.8617C146.035 42.045 146.31 42.298 146.501 42.6207C146.699 42.9434 146.798 43.3137 146.798 43.7317C146.798 44.1644 146.699 44.5421 146.501 44.8647C146.31 45.1874 146.035 45.4404 145.676 45.6237C145.317 45.7997 144.895 45.8877 144.411 45.8877H142.299ZM141.606 49.2097V41.5757H142.64V49.2097H141.606ZM146.006 49.2097L143.234 45.7887L144.213 45.4477L147.315 49.2097H146.006ZM153.723 49.3197C153.158 49.3197 152.652 49.1951 152.205 48.9457C151.765 48.6891 151.417 48.3407 151.16 47.9007C150.903 47.4534 150.775 46.9474 150.775 46.3827V41.5757H151.809V46.3607C151.809 46.7641 151.893 47.1124 152.062 47.4057C152.231 47.6991 152.458 47.9264 152.744 48.0877C153.037 48.2491 153.364 48.3297 153.723 48.3297C154.097 48.3297 154.423 48.2491 154.702 48.0877C154.988 47.9264 155.212 47.6991 155.373 47.4057C155.542 47.1124 155.626 46.7677 155.626 46.3717V41.5757H156.671V46.3937C156.671 46.9584 156.543 47.4607 156.286 47.9007C156.029 48.3407 155.681 48.6891 155.241 48.9457C154.801 49.1951 154.295 49.3197 153.723 49.3197ZM164.337 49.3197C163.787 49.3197 163.277 49.2207 162.808 49.0227C162.338 48.8174 161.928 48.5351 161.576 48.1757C161.231 47.8164 160.963 47.3984 160.773 46.9217C160.582 46.4451 160.487 45.9354 160.487 45.3927C160.487 44.8427 160.582 44.3294 160.773 43.8527C160.963 43.376 161.231 42.9617 161.576 42.6097C161.928 42.2504 162.335 41.9717 162.797 41.7737C163.266 41.5684 163.776 41.4657 164.326 41.4657C164.927 41.4657 165.455 41.5684 165.91 41.7737C166.364 41.979 166.768 42.2577 167.12 42.6097L166.405 43.3247C166.163 43.0534 165.866 42.8407 165.514 42.6867C165.169 42.5327 164.773 42.4557 164.326 42.4557C163.922 42.4557 163.552 42.529 163.215 42.6757C162.877 42.815 162.584 43.0167 162.335 43.2807C162.085 43.5447 161.891 43.8564 161.752 44.2157C161.62 44.575 161.554 44.9674 161.554 45.3927C161.554 45.8181 161.62 46.2104 161.752 46.5697C161.891 46.929 162.085 47.2407 162.335 47.5047C162.584 47.7687 162.877 47.9741 163.215 48.1207C163.552 48.2601 163.922 48.3297 164.326 48.3297C164.802 48.3297 165.217 48.2527 165.569 48.0987C165.921 47.9374 166.218 47.7211 166.46 47.4497L167.175 48.1537C166.823 48.5204 166.408 48.8064 165.932 49.0117C165.462 49.2171 164.931 49.3197 164.337 49.3197ZM172.797 49.2097V41.7957H173.831V49.2097H172.797ZM170.201 42.5217V41.5757H176.416V42.5217H170.201ZM180.148 49.2097V41.5757H181.182V49.2097H180.148ZM188.96 49.3197C188.417 49.3197 187.911 49.2207 187.442 49.0227C186.973 48.8174 186.562 48.5351 186.21 48.1757C185.858 47.8091 185.583 47.3874 185.385 46.9107C185.194 46.434 185.099 45.9244 185.099 45.3817C185.099 44.8317 185.194 44.3221 185.385 43.8527C185.583 43.376 185.854 42.958 186.199 42.5987C186.551 42.2394 186.958 41.9607 187.42 41.7627C187.889 41.5647 188.395 41.4657 188.938 41.4657C189.481 41.4657 189.983 41.5647 190.445 41.7627C190.914 41.9607 191.325 42.2394 191.677 42.5987C192.029 42.958 192.304 43.376 192.502 43.8527C192.7 44.3294 192.799 44.8427 192.799 45.3927C192.799 45.9354 192.7 46.4451 192.502 46.9217C192.304 47.3984 192.029 47.8164 191.677 48.1757C191.332 48.5351 190.925 48.8174 190.456 49.0227C189.994 49.2207 189.495 49.3197 188.96 49.3197ZM188.938 48.3297C189.488 48.3297 189.968 48.2051 190.379 47.9557C190.797 47.6991 191.127 47.3507 191.369 46.9107C191.611 46.4634 191.732 45.9537 191.732 45.3817C191.732 44.9564 191.662 44.5677 191.523 44.2157C191.384 43.8564 191.189 43.5447 190.94 43.2807C190.691 43.0167 190.397 42.815 190.06 42.6757C189.723 42.529 189.349 42.4557 188.938 42.4557C188.395 42.4557 187.915 42.5804 187.497 42.8297C187.086 43.079 186.76 43.4237 186.518 43.8637C186.283 44.3037 186.166 44.8097 186.166 45.3817C186.166 45.807 186.232 46.203 186.364 46.5697C186.503 46.929 186.694 47.2407 186.936 47.5047C187.185 47.7614 187.479 47.9631 187.816 48.1097C188.161 48.2564 188.535 48.3297 188.938 48.3297ZM196.717 49.2097V41.5757H197.443L197.751 42.7747V49.2097H196.717ZM201.997 49.2097L197.311 42.9507L197.443 41.5757L202.14 47.8237L201.997 49.2097ZM201.997 49.2097L201.689 48.0767V41.5757H202.723V49.2097H201.997ZM211.815 49.2097V41.5757H212.849V49.2097H211.815ZM217.151 49.2097V41.5757H217.877L218.185 42.7747V49.2097H217.151ZM222.431 49.2097L217.745 42.9507L217.877 41.5757L222.574 47.8237L222.431 49.2097ZM222.431 49.2097L222.123 48.0767V41.5757H223.157V49.2097H222.431ZM230.926 49.3197C230.376 49.3197 229.866 49.2207 229.397 49.0227C228.927 48.8174 228.517 48.5351 228.165 48.1757C227.82 47.8164 227.552 47.3984 227.362 46.9217C227.171 46.4451 227.076 45.9354 227.076 45.3927C227.076 44.8427 227.171 44.3294 227.362 43.8527C227.552 43.376 227.82 42.9617 228.165 42.6097C228.517 42.2504 228.924 41.9717 229.386 41.7737C229.855 41.5684 230.365 41.4657 230.915 41.4657C231.516 41.4657 232.044 41.5684 232.499 41.7737C232.953 41.979 233.357 42.2577 233.709 42.6097L232.994 43.3247C232.752 43.0534 232.455 42.8407 232.103 42.6867C231.758 42.5327 231.362 42.4557 230.915 42.4557C230.511 42.4557 230.141 42.529 229.804 42.6757C229.466 42.815 229.173 43.0167 228.924 43.2807C228.674 43.5447 228.48 43.8564 228.341 44.2157C228.209 44.575 228.143 44.9674 228.143 45.3927C228.143 45.8181 228.209 46.2104 228.341 46.5697C228.48 46.929 228.674 47.2407 228.924 47.5047C229.173 47.7687 229.466 47.9741 229.804 48.1207C230.141 48.2601 230.511 48.3297 230.915 48.3297C231.391 48.3297 231.806 48.2527 232.158 48.0987C232.51 47.9374 232.807 47.7211 233.049 47.4497L233.764 48.1537C233.412 48.5204 232.997 48.8064 232.521 49.0117C232.051 49.2171 231.52 49.3197 230.926 49.3197Z" fill="white"/>
<path fill-rule="evenodd" clip-rule="evenodd" d="M33.9277 17.9998L40.8421 22.7624V28.7096L33.9277 24.4194L17.9277 37.3038V44.7096H40.8421V49.7096H12.9277V34.9106L33.9277 17.9998Z" fill="white"/>
<path fill-rule="evenodd" clip-rule="evenodd" d="M61.4277 0L82.4277 16.9108V49.7098H40.4277V16.9108L61.4277 0ZM45.4277 19.3041V44.7098H77.4277V19.3041L61.4277 6.41964L45.4277 19.3041Z" fill="white"/>
<path fill-rule="evenodd" clip-rule="evenodd" d="M46.9277 20.0601L61.4277 8.20972L75.9277 20.0601V43.2097H46.9277V20.0601ZM66.9277 35.2097V24.2097H55.9277V35.2097H66.9277Z" fill="#FFBD3E"/>
<rect x="60.9272" y="24.2097" width="1" height="11" fill="white"/>
<rect x="66.9272" y="29.2097" width="1" height="11" transform="rotate(90 66.9272 29.2097)" fill="white"/>
<rect x="56.4272" y="24.7097" width="10" height="10" stroke="white"/>
<path fill-rule="evenodd" clip-rule="evenodd" d="M7.81416 11.6921L6.61511 14.8972L8.24777 13.332C8.53496 14.4476 8.83695 15.6786 9.14707 17.0144L6.92761 21.1472L9.54215 18.7547C9.79339 19.8862 10.048 21.0814 10.3026 22.3348C10.7125 24.3528 10.9751 26.2711 11.0778 28.0394L8.24011 34.3972L11.0501 31.5591C10.6652 36.0645 8.81543 38.9598 5.17758 38.9598C1.36522 38.9598 -1.57251 35.3348 0.927495 22.3348C4.05249 6.08479 5.5526 4.95979 6.3026 6.83479C6.64875 7.70016 7.18128 9.36431 7.81416 11.6921Z" fill="#70AB38"/>
<path d="M0.927495 22.3348C-1.57251 35.3348 1.36522 38.9598 5.17759 38.9598C5.17759 38.9598 2.17773 37.9597 2.17773 28.7097C2.17773 19.4597 6.30261 6.83479 6.30261 6.83479C5.55261 4.95979 4.0525 6.08479 0.927495 22.3348Z" fill="#659835"/>
<path d="M5.17773 24.2097L3.42773 48.4597H6.49023L5.17773 24.2097Z" fill="#8D5D43"/>
<path d="M3.08398 30.866L5.24023 37.3972L5.67773 34.616L3.08398 30.866Z" fill="#8D5D43"/>
<path d="M7.08398 34.6785L5.20898 36.8035L5.58398 39.5847L7.08398 34.6785Z" fill="#8D5D43"/>
<path d="M9.74031 47.5691C8.85281 48.5691 8.55801 49.6733 8.52156 50.1003H1.86523C1.86523 50.1003 1.00066 49.0535 0.646484 49.0222C0.646484 49.0222 1.17773 48.8816 1.44336 48.8972C1.70898 48.9128 2.16208 49.3035 2.02145 48.5222C1.90895 47.8972 2.12041 47.2931 2.2402 47.0691C2.2402 47.0691 3.06312 48.2566 3.30271 48.2566C3.02771 47.8066 3.07354 47.2774 3.13083 47.0691C3.13083 47.0691 6.05271 48.741 6.28708 47.4753C6.47458 46.4628 7.06319 45.4493 7.33405 45.0691C7.25593 46.0378 7.20905 47.8441 7.64655 47.3191C8.08405 46.7941 8.62051 46.5691 8.83406 46.5222C8.09968 47.2722 7.09968 49.2566 8.16218 48.5222C9.01218 47.9347 9.56843 47.642 9.74031 47.5691Z" fill="#A9C356"/>
<path d="M3.30271 48.2566C3.02771 47.8066 3.07354 47.2774 3.13083 47.0691C3.39331 48.9566 6.83401 49.8764 8.52156 50.1003H1.86523C1.86523 50.1003 1.00066 49.0535 0.646484 49.0222C0.646484 49.0222 1.17773 48.8816 1.44336 48.8972C1.70898 48.9128 2.16208 49.3035 2.02145 48.5222C1.90895 47.8972 2.12041 47.2931 2.2402 47.0691C2.2402 47.0691 3.06312 48.2566 3.30271 48.2566Z" fill="#91A64A"/>
<path fill-rule="evenodd" clip-rule="evenodd" d="M14.6045 27.4685L13.898 29.357L14.86 28.4348C15.0292 29.0921 15.2072 29.8175 15.3899 30.6046L14.0821 33.0398L15.6227 31.63C15.7707 32.2968 15.9208 33.001 16.0708 33.7396C16.3123 34.9287 16.4671 36.0591 16.5275 37.1011L14.8555 40.8473L16.5112 39.175C16.2844 41.8298 15.1944 43.5358 13.0509 43.5358C10.8045 43.5358 9.07341 41.3998 10.5465 33.7396C12.3879 24.1643 13.2719 23.5014 13.7138 24.6062C13.9178 25.1162 14.2316 26.0968 14.6045 27.4685Z" fill="#70AB38"/>
<path d="M10.5465 33.7396C9.07341 41.3998 10.8045 43.5358 13.0509 43.5358C13.0509 43.5358 11.2832 42.9465 11.2832 37.496C11.2832 32.0454 13.7138 24.6062 13.7138 24.6062C13.2719 23.5014 12.3879 24.1643 10.5465 33.7396Z" fill="#659835"/>
<path d="M13.051 34.8445L12.0198 49.1337H13.8243L13.051 34.8445Z" fill="#8D5D43"/>
<path d="M11.8171 38.7666L13.0877 42.6151L13.3455 40.9763L11.8171 38.7666Z" fill="#8D5D43"/>
<path d="M14.1742 41.0129L13.0693 42.2651L13.2903 43.9039L14.1742 41.0129Z" fill="#8D5D43"/>
<path d="M15.7394 48.6089C15.2164 49.1981 15.0427 49.8487 15.0212 50.1004H11.099C11.099 50.1004 10.5896 49.4835 10.3809 49.4651C10.3809 49.4651 10.6939 49.3822 10.8504 49.3915C11.0069 49.4007 11.2739 49.6308 11.1911 49.1705C11.1248 48.8022 11.2494 48.4462 11.32 48.3142C11.32 48.3142 11.8049 49.014 11.946 49.014C11.784 48.7488 11.811 48.437 11.8448 48.3142C11.8448 48.3142 13.5665 49.2994 13.7046 48.5536C13.815 47.957 14.1619 47.3598 14.3215 47.1357C14.2755 47.7066 14.2478 48.7709 14.5056 48.4615C14.7634 48.1522 15.0795 48.0196 15.2054 47.992C14.7726 48.4339 14.1834 49.6032 14.8095 49.1705C15.3103 48.8243 15.6381 48.6518 15.7394 48.6089Z" fill="#A9C356"/>
<path d="M11.946 49.0139C11.784 48.7488 11.811 48.437 11.8448 48.3142C11.9994 49.4264 14.0268 49.9684 15.0212 50.1004H11.099C11.099 50.1004 10.5896 49.4835 10.3809 49.4651C10.3809 49.4651 10.6939 49.3822 10.8504 49.3914C11.0069 49.4006 11.2739 49.6308 11.1911 49.1705C11.1248 48.8022 11.2494 48.4462 11.32 48.3142C11.32 48.3142 11.8049 49.0139 11.946 49.0139Z" fill="#91A64A"/>
</svg>
