<svg width="42" height="42" viewBox="0 0 42 42" fill="none" xmlns="http://www.w3.org/2000/svg">
<rect x="0.5" y="0.5" width="41" height="41" stroke="white" stroke-opacity="0.2"/>
<path d="M31 21.0611C31 15.5045 26.5229 11 21 11C15.4771 11 11 15.5045 11 21.0611C11 26.0829 14.6569 30.2452 19.4375 31V23.9694H16.8984V21.0611H19.4375V18.8445C19.4375 16.323 20.9304 14.9301 23.2146 14.9301C24.3088 14.9301 25.4531 15.1266 25.4531 15.1266V17.6026H24.1921C22.9499 17.6026 22.5625 18.3781 22.5625 19.1738V21.0611H25.3359L24.8926 23.9694H22.5625V31C27.3432 30.2452 31 26.0829 31 21.0611Z" fill="white"/>
</svg>
