<svg width="196" height="58" viewBox="0 0 196 58" fill="none" xmlns="http://www.w3.org/2000/svg">
<rect width="196" height="58" fill="#F3AA1D"/>
<path d="M29.7505 35V24.59H31.1605V35H29.7505ZM30.7105 30.425V29.135H36.1405V30.425H30.7105ZM30.7105 25.88V24.59H36.3955V25.88H30.7105ZM41.6916 30.47V29.285H44.5116C45.1216 29.285 45.5916 29.13 45.9216 28.82C46.2516 28.51 46.4166 28.09 46.4166 27.56C46.4166 27.06 46.2516 26.645 45.9216 26.315C45.6016 25.985 45.1366 25.82 44.5266 25.82H41.6916V24.59H44.5716C45.2316 24.59 45.8066 24.72 46.2966 24.98C46.7866 25.23 47.1616 25.575 47.4216 26.015C47.6916 26.455 47.8266 26.96 47.8266 27.53C47.8266 28.12 47.6916 28.635 47.4216 29.075C47.1616 29.515 46.7866 29.86 46.2966 30.11C45.8066 30.35 45.2316 30.47 44.5716 30.47H41.6916ZM40.7466 35V24.59H42.1566V35H40.7466ZM46.7466 35L42.9666 30.335L44.3016 29.87L48.5316 35H46.7466ZM52.4898 35V24.59H53.8998V35H52.4898ZM53.4498 35V33.71H59.4198V35H53.4498ZM53.4498 30.29V29.06H58.9248V30.29H53.4498ZM53.4498 25.88V24.59H59.3448V25.88H53.4498ZM63.8374 35V24.59H65.2474V35H63.8374ZM64.7974 35V33.71H70.7674V35H64.7974ZM64.7974 30.29V29.06H70.2724V30.29H64.7974ZM64.7974 25.88V24.59H70.6924V25.88H64.7974ZM80.8052 35V24.59H82.2152V35H80.8052ZM81.7652 35V33.71H87.7352V35H81.7652ZM81.7652 30.29V29.06H87.2402V30.29H81.7652ZM81.7652 25.88V24.59H87.6602V25.88H81.7652ZM94.7842 35.15C93.9642 35.15 93.2642 35 92.6842 34.7C92.1042 34.4 91.5892 33.965 91.1392 33.395L92.0992 32.435C92.4292 32.895 92.8092 33.245 93.2392 33.485C93.6692 33.715 94.1992 33.83 94.8292 33.83C95.4492 33.83 95.9442 33.695 96.3142 33.425C96.6942 33.155 96.8842 32.785 96.8842 32.315C96.8842 31.925 96.7942 31.61 96.6142 31.37C96.4342 31.13 96.1892 30.935 95.8792 30.785C95.5792 30.625 95.2492 30.485 94.8892 30.365C94.5292 30.235 94.1692 30.1 93.8092 29.96C93.4492 29.81 93.1192 29.63 92.8192 29.42C92.5192 29.2 92.2742 28.915 92.0842 28.565C91.9042 28.215 91.8142 27.775 91.8142 27.245C91.8142 26.655 91.9542 26.155 92.2342 25.745C92.5242 25.325 92.9142 25.005 93.4042 24.785C93.9042 24.555 94.4642 24.44 95.0842 24.44C95.7642 24.44 96.3742 24.575 96.9142 24.845C97.4542 25.105 97.8942 25.45 98.2342 25.88L97.2742 26.84C96.9642 26.48 96.6292 26.21 96.2692 26.03C95.9192 25.85 95.5142 25.76 95.0542 25.76C94.4942 25.76 94.0492 25.885 93.7192 26.135C93.3892 26.375 93.2242 26.715 93.2242 27.155C93.2242 27.505 93.3142 27.79 93.4942 28.01C93.6842 28.22 93.9292 28.4 94.2292 28.55C94.5292 28.7 94.8592 28.84 95.2192 28.97C95.5892 29.09 95.9542 29.225 96.3142 29.375C96.6742 29.525 97.0042 29.715 97.3042 29.945C97.6042 30.175 97.8442 30.475 98.0242 30.845C98.2142 31.205 98.3092 31.66 98.3092 32.21C98.3092 33.13 97.9892 33.85 97.3492 34.37C96.7192 34.89 95.8642 35.15 94.7842 35.15ZM104.986 35V24.89H106.396V35H104.986ZM101.446 25.88V24.59H109.921V25.88H101.446ZM114.101 35V24.59H115.511V35H114.101ZM120.468 35V24.59H121.458L125.868 31.835H125.193L129.603 24.59H130.593V35H129.183V27.065L129.513 27.155L126.033 32.87H125.043L121.563 27.155L121.878 27.065V35H120.468ZM134.786 35L139.046 24.59H140.066L144.311 35H142.781L139.286 26.195H139.811L136.286 35H134.786ZM136.811 32.645V31.415H142.286V32.645H136.811ZM149.747 35V24.89H151.157V35H149.747ZM146.207 25.88V24.59H154.682V25.88H146.207ZM158.862 35V24.59H160.272V35H158.862ZM159.822 35V33.71H165.792V35H159.822ZM159.822 30.29V29.06H165.297V30.29H159.822ZM159.822 25.88V24.59H165.717V25.88H159.822Z" fill="white"/>
</svg>
