<svg width="42" height="42" viewBox="0 0 42 42" fill="none" xmlns="http://www.w3.org/2000/svg">
<rect x="0.5" y="0.5" width="41" height="41" stroke="white" stroke-opacity="0.2"/>
<path d="M21.183 31C15.5684 31 11 26.5146 11 21C11 15.4854 15.5684 11 21.183 11C23.7266 11 26.1613 11.9256 28.0409 13.607L28.3833 13.9144L25.0252 17.2126L24.714 16.9511C23.7284 16.1223 22.4747 15.6654 21.183 15.6654C18.1881 15.6654 15.75 18.0584 15.75 21C15.75 23.9416 18.1881 26.3346 21.183 26.3346C23.3427 26.3346 25.0494 25.251 25.8535 23.4049H20.7404V18.9025L30.7228 18.9161L30.7972 19.2609C31.3176 21.6878 30.9009 25.2578 28.7913 27.8122C27.0449 29.9266 24.4857 31 21.183 31Z" fill="white"/>
</svg>
