<svg width="42" height="42" viewBox="0 0 42 42" fill="none" xmlns="http://www.w3.org/2000/svg">
<rect x="0.5" y="0.5" width="41" height="41" stroke="#1E1E1E" stroke-opacity="0.1"/>
<path fill-rule="evenodd" clip-rule="evenodd" d="M15.3101 21.0001C15.3101 20.3505 15.4179 19.7277 15.6106 19.1437L12.2403 16.5701C11.5834 17.9037 11.2134 19.4065 11.2134 21.0001C11.2134 22.5924 11.5831 24.0941 12.2388 25.4269L15.6073 22.8484C15.4165 22.2669 15.3101 21.6465 15.3101 21.0001Z" fill="#FBBC05"/>
<path fill-rule="evenodd" clip-rule="evenodd" d="M21.2276 15.0909C22.6387 15.0909 23.9132 15.5909 24.9146 16.4091L27.8277 13.5C26.0526 11.9545 23.7766 11 21.2276 11C17.2701 11 13.8688 13.2631 12.2402 16.57L15.6104 19.1436C16.387 16.7864 18.6005 15.0909 21.2276 15.0909Z" fill="#EA4335"/>
<path fill-rule="evenodd" clip-rule="evenodd" d="M21.2276 26.9091C18.6007 26.9091 16.3871 25.2136 15.6105 22.8564L12.2402 25.4296C13.8688 28.7369 17.2701 31 21.2276 31C23.6701 31 26.0021 30.1327 27.7523 28.5077L24.5532 26.0346C23.6505 26.6032 22.5138 26.9091 21.2276 26.9091Z" fill="#34A853"/>
<path fill-rule="evenodd" clip-rule="evenodd" d="M30.7864 21C30.7864 20.4091 30.6954 19.7727 30.5588 19.1819H21.2275V23.0455H26.5988C26.3302 24.3628 25.5993 25.3755 24.5532 26.0345L27.7522 28.5077C29.5907 26.8014 30.7864 24.2595 30.7864 21Z" fill="#4285F4"/>
</svg>
