<svg width="82" height="24" viewBox="0 0 82 24" fill="none" xmlns="http://www.w3.org/2000/svg">
<path fill-rule="evenodd" clip-rule="evenodd" d="M5.17241 12.0001C5.17241 11.2206 5.30179 10.4733 5.53297 9.7724L1.4886 6.68408C0.700348 8.28439 0.256348 10.0878 0.256348 12.0001C0.256348 13.9109 0.699973 15.713 1.48691 17.3123L5.52904 14.218C5.3001 13.5203 5.17241 12.7758 5.17241 12.0001Z" fill="#FBBC05"/>
<path fill-rule="evenodd" clip-rule="evenodd" d="M12.2731 4.90913C13.9664 4.90913 15.4958 5.50913 16.6975 6.49088L20.1933 3C18.0631 1.14544 15.332 0 12.2731 0C7.5241 0 3.44259 2.71575 1.48828 6.684L5.53247 9.77231C6.46434 6.94369 9.12066 4.90913 12.2731 4.90913Z" fill="#EA4335"/>
<path fill-rule="evenodd" clip-rule="evenodd" d="M12.2731 19.091C9.12084 19.091 6.46453 17.0564 5.53266 14.2278L1.48828 17.3155C3.44259 21.2843 7.52409 24.0001 12.2731 24.0001C15.2041 24.0001 18.0025 22.9593 20.1027 21.0093L16.2638 18.0415C15.1807 18.7238 13.8166 19.091 12.2731 19.091Z" fill="#34A853"/>
<path fill-rule="evenodd" clip-rule="evenodd" d="M23.7436 12C23.7436 11.2909 23.6343 10.5272 23.4704 9.81824H12.2729V14.4545H18.7184C18.3961 16.0354 17.519 17.2505 16.2637 18.0414L20.1026 21.0092C22.3087 18.9617 23.7436 15.9114 23.7436 12Z" fill="#4285F4"/>
<path d="M39.544 17.14C38.8627 17.14 38.2233 17.014 37.626 16.762C37.038 16.5007 36.52 16.1413 36.072 15.684C35.6333 15.2267 35.288 14.6947 35.036 14.088C34.784 13.4813 34.658 12.828 34.658 12.128C34.658 11.428 34.784 10.7793 35.036 10.182C35.288 9.57533 35.638 9.04333 36.086 8.586C36.534 8.12867 37.0567 7.774 37.654 7.522C38.2607 7.27 38.9187 7.144 39.628 7.144C40.4027 7.144 41.1167 7.29333 41.77 7.592C42.4233 7.89067 42.9693 8.32 43.408 8.88L42.498 9.79C42.19 9.342 41.784 9.00133 41.28 8.768C40.776 8.52533 40.2253 8.404 39.628 8.404C38.9187 8.404 38.2887 8.56267 37.738 8.88C37.1967 9.19733 36.772 9.636 36.464 10.196C36.1653 10.756 36.016 11.4 36.016 12.128C36.016 12.8653 36.17 13.514 36.478 14.074C36.786 14.634 37.2013 15.0727 37.724 15.39C38.2467 15.7073 38.844 15.866 39.516 15.866C40.1973 15.866 40.7853 15.7353 41.28 15.474C41.784 15.2127 42.1713 14.83 42.442 14.326C42.7127 13.8127 42.848 13.1873 42.848 12.45L43.646 13.024H39.446V11.82H44.206V12.016C44.206 13.1453 44.0053 14.0927 43.604 14.858C43.212 15.614 42.6613 16.1833 41.952 16.566C41.252 16.9487 40.4493 17.14 39.544 17.14ZM49.2901 17.14C48.6368 17.14 48.0488 16.986 47.5261 16.678C47.0035 16.37 46.5881 15.9547 46.2801 15.432C45.9721 14.9 45.8181 14.3073 45.8181 13.654C45.8181 13.01 45.9721 12.4313 46.2801 11.918C46.5881 11.3953 47.0035 10.98 47.5261 10.672C48.0488 10.364 48.6368 10.21 49.2901 10.21C49.9341 10.21 50.5175 10.364 51.0401 10.672C51.5721 10.9707 51.9921 11.3813 52.3001 11.904C52.6081 12.4267 52.7621 13.01 52.7621 13.654C52.7621 14.3073 52.6081 14.9 52.3001 15.432C51.9921 15.9547 51.5721 16.37 51.0401 16.678C50.5175 16.986 49.9341 17.14 49.2901 17.14ZM49.2901 15.922C49.7101 15.922 50.0835 15.824 50.4101 15.628C50.7368 15.432 50.9935 15.166 51.1801 14.83C51.3668 14.4847 51.4601 14.0927 51.4601 13.654C51.4601 13.2247 51.3621 12.842 51.1661 12.506C50.9795 12.17 50.7228 11.9087 50.3961 11.722C50.0788 11.526 49.7101 11.428 49.2901 11.428C48.8701 11.428 48.4968 11.526 48.1701 11.722C47.8435 11.9087 47.5868 12.17 47.4001 12.506C47.2135 12.842 47.1201 13.2247 47.1201 13.654C47.1201 14.0927 47.2135 14.4847 47.4001 14.83C47.5868 15.166 47.8435 15.432 48.1701 15.628C48.4968 15.824 48.8701 15.922 49.2901 15.922ZM57.7198 17.14C57.0665 17.14 56.4785 16.986 55.9558 16.678C55.4331 16.37 55.0178 15.9547 54.7098 15.432C54.4018 14.9 54.2478 14.3073 54.2478 13.654C54.2478 13.01 54.4018 12.4313 54.7098 11.918C55.0178 11.3953 55.4331 10.98 55.9558 10.672C56.4785 10.364 57.0665 10.21 57.7198 10.21C58.3638 10.21 58.9471 10.364 59.4698 10.672C60.0018 10.9707 60.4218 11.3813 60.7298 11.904C61.0378 12.4267 61.1918 13.01 61.1918 13.654C61.1918 14.3073 61.0378 14.9 60.7298 15.432C60.4218 15.9547 60.0018 16.37 59.4698 16.678C58.9471 16.986 58.3638 17.14 57.7198 17.14ZM57.7198 15.922C58.1398 15.922 58.5131 15.824 58.8398 15.628C59.1665 15.432 59.4231 15.166 59.6098 14.83C59.7965 14.4847 59.8898 14.0927 59.8898 13.654C59.8898 13.2247 59.7918 12.842 59.5958 12.506C59.4091 12.17 59.1525 11.9087 58.8258 11.722C58.5085 11.526 58.1398 11.428 57.7198 11.428C57.2998 11.428 56.9265 11.526 56.5998 11.722C56.2731 11.9087 56.0165 12.17 55.8298 12.506C55.6431 12.842 55.5498 13.2247 55.5498 13.654C55.5498 14.0927 55.6431 14.4847 55.8298 14.83C56.0165 15.166 56.2731 15.432 56.5998 15.628C56.9265 15.824 57.2998 15.922 57.7198 15.922ZM65.8695 19.926C65.1882 19.926 64.5815 19.8 64.0495 19.548C63.5268 19.296 63.1068 18.9413 62.7895 18.484L63.6015 17.658C63.8722 18.0033 64.1942 18.2647 64.5675 18.442C64.9408 18.6287 65.3842 18.722 65.8975 18.722C66.5788 18.722 67.1155 18.54 67.5075 18.176C67.9088 17.8213 68.1095 17.3407 68.1095 16.734V15.082L68.3335 13.584L68.1095 12.1V10.35H69.3695V16.734C69.3695 17.3687 69.2202 17.924 68.9215 18.4C68.6322 18.876 68.2215 19.2493 67.6895 19.52C67.1668 19.7907 66.5602 19.926 65.8695 19.926ZM65.8695 16.888C65.2628 16.888 64.7168 16.7433 64.2315 16.454C63.7555 16.1647 63.3775 15.768 63.0975 15.264C62.8175 14.7507 62.6775 14.1767 62.6775 13.542C62.6775 12.9073 62.8175 12.3427 63.0975 11.848C63.3775 11.344 63.7555 10.9473 64.2315 10.658C64.7168 10.3593 65.2628 10.21 65.8695 10.21C66.3922 10.21 66.8542 10.3127 67.2555 10.518C67.6568 10.7233 67.9742 11.0127 68.2075 11.386C68.4502 11.75 68.5808 12.1793 68.5995 12.674V14.438C68.5715 14.9233 68.4362 15.3527 68.1935 15.726C67.9602 16.09 67.6428 16.3747 67.2415 16.58C66.8402 16.7853 66.3828 16.888 65.8695 16.888ZM66.1215 15.698C66.5322 15.698 66.8915 15.6093 67.1995 15.432C67.5168 15.2547 67.7595 15.0073 67.9275 14.69C68.0955 14.3633 68.1795 13.9853 68.1795 13.556C68.1795 13.1267 68.0908 12.7533 67.9135 12.436C67.7455 12.1093 67.5075 11.8573 67.1995 11.68C66.8915 11.4933 66.5275 11.4 66.1075 11.4C65.6875 11.4 65.3188 11.4933 65.0015 11.68C64.6842 11.8573 64.4322 12.1093 64.2455 12.436C64.0682 12.7533 63.9795 13.122 63.9795 13.542C63.9795 13.962 64.0682 14.3353 64.2455 14.662C64.4322 14.9887 64.6842 15.2453 65.0015 15.432C65.3282 15.6093 65.7015 15.698 66.1215 15.698ZM71.7189 17V7.004H72.9789V17H71.7189ZM78.4024 17.14C77.7398 17.14 77.1424 16.9907 76.6104 16.692C76.0784 16.384 75.6584 15.9687 75.3504 15.446C75.0424 14.9233 74.8884 14.3307 74.8884 13.668C74.8884 13.0147 75.0378 12.4267 75.3364 11.904C75.6444 11.3813 76.0551 10.9707 76.5684 10.672C77.0911 10.364 77.6744 10.21 78.3184 10.21C78.9344 10.21 79.4758 10.35 79.9424 10.63C80.4184 10.91 80.7871 11.2973 81.0484 11.792C81.3191 12.2867 81.4544 12.8467 81.4544 13.472C81.4544 13.5653 81.4498 13.668 81.4404 13.78C81.4311 13.8827 81.4124 14.004 81.3844 14.144H75.7704V13.094H80.7124L80.2504 13.5C80.2504 13.052 80.1711 12.674 80.0124 12.366C79.8538 12.0487 79.6298 11.806 79.3404 11.638C79.0511 11.4607 78.7011 11.372 78.2904 11.372C77.8611 11.372 77.4831 11.4653 77.1564 11.652C76.8298 11.8387 76.5778 12.1 76.4004 12.436C76.2231 12.772 76.1344 13.1687 76.1344 13.626C76.1344 14.0927 76.2278 14.5033 76.4144 14.858C76.6011 15.2033 76.8671 15.474 77.2124 15.67C77.5578 15.8567 77.9544 15.95 78.4024 15.95C78.7758 15.95 79.1164 15.8847 79.4244 15.754C79.7418 15.6233 80.0124 15.4273 80.2364 15.166L81.0484 15.992C80.7311 16.3653 80.3391 16.65 79.8724 16.846C79.4151 17.042 78.9251 17.14 78.4024 17.14Z" fill="#1E1E1E"/>
</svg>
