<svg width="42" height="42" viewBox="0 0 42 42" fill="none" xmlns="http://www.w3.org/2000/svg">
<rect x="0.5" y="0.5" width="41" height="41" stroke="white" stroke-opacity="0.2"/>
<path d="M20.9997 15.7979C18.1771 15.7979 15.8384 18.0962 15.8384 20.9591C15.8384 23.822 18.1368 26.1204 20.9997 26.1204C23.8626 26.1204 26.161 23.7817 26.161 20.9591C26.161 18.1366 23.8223 15.7979 20.9997 15.7979ZM20.9997 24.2656C19.1852 24.2656 17.6932 22.7737 17.6932 20.9591C17.6932 19.1446 19.1852 17.6527 20.9997 17.6527C22.8142 17.6527 24.3061 19.1446 24.3061 20.9591C24.3061 22.7737 22.8142 24.2656 20.9997 24.2656Z" fill="white"/>
<path d="M26.3632 16.8465C27.009 16.8465 27.5326 16.323 27.5326 15.6772C27.5326 15.0314 27.009 14.5078 26.3632 14.5078C25.7174 14.5078 25.1938 15.0314 25.1938 15.6772C25.1938 16.323 25.7174 16.8465 26.3632 16.8465Z" fill="white"/>
<path d="M29.3871 12.6532C28.3387 11.5645 26.8468 11 25.1532 11H16.8468C13.3387 11 11 13.3387 11 16.8468V25.1129C11 26.8468 11.5645 28.3387 12.6935 29.4274C13.7823 30.4758 15.2339 31 16.8871 31H25.1129C26.8468 31 28.2984 30.4355 29.3468 29.4274C30.4355 28.379 31 26.8871 31 25.1532V16.8468C31 15.1532 30.4355 13.7016 29.3871 12.6532ZM29.2258 25.1532C29.2258 26.4032 28.7823 27.4113 28.0565 28.0968C27.3306 28.7823 26.3226 29.1452 25.1129 29.1452H16.8871C15.6774 29.1452 14.6694 28.7823 13.9435 28.0968C13.2177 27.371 12.8548 26.3629 12.8548 25.1129V16.8468C12.8548 15.6371 13.2177 14.629 13.9435 13.9032C14.629 13.2177 15.6774 12.8548 16.8871 12.8548H25.1935C26.4032 12.8548 27.4113 13.2177 28.1371 13.9435C28.8226 14.6694 29.2258 15.6774 29.2258 16.8468V25.1532Z" fill="white"/>
</svg>
