<svg width="42" height="42" viewBox="0 0 42 42" fill="none" xmlns="http://www.w3.org/2000/svg">
<rect x="0.5" y="0.5" width="41" height="41" stroke="#1E1E1E" stroke-opacity="0.1"/>
<path fill-rule="evenodd" clip-rule="evenodd" d="M27.538 15.662C27.538 16.3248 27.0006 16.862 26.338 16.862C25.6753 16.862 25.138 16.3248 25.138 15.662C25.138 14.9992 25.6753 14.462 26.338 14.462C27.0008 14.462 27.538 14.9992 27.538 15.662ZM21 24.3333C19.1591 24.3333 17.6667 22.8409 17.6667 21C17.6667 19.1591 19.1591 17.6667 21 17.6667C22.8409 17.6667 24.3333 19.1591 24.3333 21C24.3333 22.8409 22.8409 24.3333 21 24.3333ZM21 15.8648C18.1639 15.8648 15.8648 18.1639 15.8648 21C15.8648 23.8361 18.1639 26.1352 21 26.1352C23.8361 26.1352 26.1352 23.8361 26.1352 21C26.1352 18.1639 23.8361 15.8648 21 15.8648ZM21 12.8019C23.6702 12.8019 23.9864 12.812 25.0408 12.8602C26.0158 12.9047 26.5453 13.0675 26.8977 13.2045C27.3644 13.3859 27.6975 13.6027 28.0475 13.9527C28.3975 14.3025 28.6142 14.6356 28.7956 15.1025C28.9325 15.4548 29.0955 15.9844 29.14 16.9594C29.1881 18.0139 29.1983 18.3302 29.1983 21.0003C29.1983 23.6705 29.1881 23.9867 29.14 25.0411C29.0955 26.0161 28.9327 26.5456 28.7956 26.898C28.6142 27.3647 28.3975 27.6978 28.0475 28.0478C27.6977 28.3978 27.3645 28.6145 26.8977 28.7959C26.5453 28.9328 26.0158 29.0958 25.0408 29.1403C23.9864 29.1884 23.6702 29.1986 21 29.1986C18.3297 29.1986 18.0134 29.1884 16.9591 29.1403C15.9841 29.0958 15.4545 28.933 15.1022 28.7959C14.6355 28.6145 14.3023 28.3978 13.9523 28.0478C13.6025 27.698 13.3856 27.3648 13.2042 26.898C13.0673 26.5456 12.9044 26.0161 12.8598 25.0411C12.8117 23.9866 12.8016 23.6703 12.8016 21.0003C12.8016 18.3302 12.8117 18.0139 12.8598 16.9594C12.9044 15.9844 13.0672 15.4548 13.2042 15.1025C13.3856 14.6358 13.6023 14.3027 13.9523 13.9527C14.3022 13.6027 14.6353 13.3859 15.1022 13.2045C15.4545 13.0677 15.9841 12.9047 16.9591 12.8602C18.0136 12.812 18.3298 12.8019 21 12.8019ZM21 11C18.2842 11 17.9436 11.0116 16.877 11.0602C15.8127 11.1088 15.0856 11.2778 14.4497 11.525C13.792 11.7805 13.2344 12.1225 12.6784 12.6784C12.1225 13.2344 11.7805 13.792 11.525 14.4497C11.2778 15.0858 11.1088 15.8127 11.0602 16.877C11.0116 17.9436 11 18.2842 11 21C11 23.7158 11.0116 24.0564 11.0602 25.123C11.1088 26.1873 11.2778 26.9142 11.525 27.5503C11.7805 28.208 12.1225 28.7656 12.6784 29.3216C13.2344 29.8775 13.792 30.2194 14.4497 30.475C15.0858 30.7222 15.8127 30.8913 16.877 30.9398C17.9436 30.9884 18.2842 31 21 31C23.7158 31 24.0564 30.9884 25.123 30.9398C26.1873 30.8913 26.9142 30.7222 27.5503 30.475C28.208 30.2194 28.7656 29.8775 29.3216 29.3216C29.8775 28.7656 30.2194 28.208 30.475 27.5503C30.7222 26.9142 30.8913 26.1873 30.9398 25.123C30.9884 24.0564 31 23.7158 31 21C31 18.2842 30.9884 17.9436 30.9398 16.877C30.8913 15.8127 30.7222 15.0858 30.475 14.4497C30.2194 13.792 29.8775 13.2344 29.3216 12.6784C28.7656 12.1225 28.208 11.7806 27.5503 11.525C26.9142 11.2778 26.1873 11.1088 25.123 11.0602C24.0564 11.0116 23.7158 11 21 11Z" fill="url(#paint0_radial_193_2210)"/>
<defs>
<radialGradient id="paint0_radial_193_2210" cx="0" cy="0" r="1" gradientUnits="userSpaceOnUse" gradientTransform="translate(13.9861 31.0694) scale(25.555)">
<stop stop-color="#FFB140"/>
<stop offset="0.2559" stop-color="#FF5445"/>
<stop offset="0.599" stop-color="#FC2B82"/>
<stop offset="1" stop-color="#8E40B7"/>
</radialGradient>
</defs>
</svg>
