<svg width="42" height="42" viewBox="0 0 42 42" fill="none" xmlns="http://www.w3.org/2000/svg">
<rect x="0.5" y="0.5" width="41" height="41" stroke="white" stroke-opacity="0.2"/>
<path d="M19.596 10.0026C18.3094 10.0512 15.6445 10.8526 15.0641 11.451C14.8431 11.6612 14.7874 11.9775 14.8431 12.1877C14.9527 12.398 19.4289 19.1904 19.4289 19.1904C20.0919 20.2434 20.4369 20.1266 20.6041 20.0745C20.7694 20.0206 21.321 19.8229 21.2114 18.5597C21.1557 17.1365 20.7137 10.8724 20.6598 10.5561C20.5484 10.2937 20.383 10.0817 20.0506 10.0278C19.9338 10.0026 19.7793 9.99545 19.596 10.0026ZM26.6346 16.4393C26.5052 16.4447 26.3794 16.4842 26.2698 16.5633C25.9248 16.9029 26.047 16.6621 24.0614 19.2928L23.1216 20.5021C22.9005 20.7645 22.9527 21.2048 23.1737 21.521C23.3947 21.8373 23.6948 22.0044 24.1153 21.9235C24.2806 21.8696 24.613 21.8175 25.2186 21.6594C29.0281 20.8184 29.0622 20.8238 29.2294 20.7196C29.4486 20.5614 29.56 20.3512 29.56 20.0349V19.9828C29.4486 19.1419 27.8152 16.8795 27.0425 16.5111C26.9041 16.459 26.7658 16.4321 26.6346 16.4393ZM14.0991 20.105C13.8781 20.105 13.6014 20.211 13.4343 20.4734C13.0479 21.0017 12.9293 22.6818 13.039 23.8409C13.0947 24.2092 13.1504 24.5093 13.26 24.7196C13.4253 24.9837 13.6463 25.1418 13.923 25.1418C14.0884 25.1418 13.9626 25.0933 17.2779 24.1463L18.7712 23.6719C19.1575 23.5659 19.4271 23.3018 19.4271 22.8813C19.4271 22.4608 19.2222 22.1122 18.8359 21.9541L17.7865 21.5336C14.1944 20.1104 14.2645 20.105 14.0991 20.105ZM24.0829 23.8103C23.7954 23.7887 23.5259 23.8606 23.321 24.0799C23.1431 24.2739 23.0084 24.8256 23.2294 25.1418L23.8368 26.0349C25.826 29.0897 25.8367 29.246 26.0021 29.3521C26.2231 29.5623 26.4998 29.5641 26.7765 29.4581C27.6606 29.1418 29.3893 27.0484 29.4989 26.2056C29.5546 25.9433 29.445 25.6791 29.2222 25.4168C29.1126 25.3108 28.8826 25.273 25.7864 24.3117L24.3704 23.8624C24.2752 23.8355 24.1782 23.8175 24.0829 23.8103ZM20.3884 24.7339C20.0919 24.7016 19.8062 24.7609 19.6409 24.9981L18.9221 25.8391C16.4352 28.6297 16.3256 28.7878 16.2698 28.946C16.2141 29.052 16.2141 29.1562 16.2141 29.2622C16.2698 29.4186 16.3256 29.5246 16.4352 29.6827C17.0425 30.3152 19.7272 31.3017 20.6112 31.1436C20.888 31.0915 21.109 30.9316 21.2186 30.6692C21.2743 30.5111 21.2725 30.4069 21.2725 27.0897V25.5623C21.2743 25.1005 21.0713 24.9478 20.6831 24.7896C20.5879 24.7627 20.4873 24.7429 20.3884 24.7339Z" fill="white"/>
</svg>
