<svg width="42" height="42" viewBox="0 0 42 42" fill="none" xmlns="http://www.w3.org/2000/svg">
<rect x="0.5" y="0.5" width="41" height="41" stroke="#1E1E1E" stroke-opacity="0.1"/>
<path d="M30.5822 16.1861C30.3522 15.3256 29.6746 14.648 28.814 14.418C27.2542 14 21 14 21 14C21 14 14.7458 14 13.186 14.418C12.3256 14.648 11.6478 15.3256 11.4179 16.1861C11 17.7458 11 21.0001 11 21.0001C11 21.0001 11 24.2544 11.4179 25.8139C11.6478 26.6744 12.3256 27.3523 13.186 27.5822C14.7458 28 21 28 21 28C21 28 27.2542 28 28.814 27.5822C29.6746 27.3523 30.3522 26.6744 30.5822 25.8139C31 24.2544 31 21.0001 31 21.0001C31 21.0001 31 17.7458 30.5822 16.1861ZM18.9999 24.0002V18L24.196 21.0001L18.9999 24.0002Z" fill="#FF0000"/>
</svg>
